<?xml version="1.0" encoding="UTF-8"?>
<svg version="1.1" xmlns="http://www.w3.org/2000/svg" width="2048" height="2048" viewBox="0 0 2048 2048">
<path d="M0 0 C675.84 0 1351.68 0 2048 0 C2048 675.84 2048 1351.68 2048 2048 C1372.16 2048 696.32 2048 0 2048 C0 1372.16 0 696.32 0 0 Z " fill="#F6F6F2" transform="translate(0,0)"/>
<path d="M0 0 C4 0 4 0 6.34765625 2.2109375 C7.22292969 3.13132812 8.09820313 4.05171875 9 5 C11.12650944 6.59148727 13.25067951 8.12344903 15.4375 9.625 C20.4501107 13.13356164 25.3338833 16.75696539 30.125 20.5625 C42.46534855 30.35623688 55.10115705 39.79548605 68.19921875 48.5546875 C68.79347656 49.03164063 69.38773438 49.50859375 70 50 C70 50.66 70 51.32 70 52 C70.763125 52.28875 71.52625 52.5775 72.3125 52.875 C75 54 75 54 78 56 C78.36076355 57.98684692 78.36076355 57.98684692 78.34057617 60.44970703 C78.34034958 61.37051056 78.34012299 62.29131409 78.33988953 63.24002075 C78.32440567 64.23589203 78.30892181 65.23176331 78.29296875 66.2578125 C78.28872391 67.27600067 78.28447906 68.29418884 78.28010559 69.3432312 C78.26327579 72.60408673 78.22561546 75.86433041 78.1875 79.125 C78.17245874 81.33202234 78.15876937 83.53905434 78.14648438 85.74609375 C78.1133583 91.16427223 78.06311653 96.58209242 78 102 C81.16848352 100.13899103 84.20847742 98.20038839 87.1796875 96.0390625 C88.32630859 95.20761719 88.32630859 95.20761719 89.49609375 94.359375 C90.67365234 93.50085938 90.67365234 93.50085938 91.875 92.625 C94.19229185 90.94179298 96.50961023 89.25897567 98.83496094 87.58691406 C100.22914624 86.5650146 101.6043636 85.51644871 102.95410156 84.43652344 C107.40109057 80.95260731 107.40109057 80.95260731 110.44042969 81.19311523 C113.2008149 82.06330534 114.91176898 83.12119391 117.1953125 84.88671875 C117.98373535 85.48822754 118.7721582 86.08973633 119.58447266 86.70947266 C120.42284668 87.36222168 121.2612207 88.0149707 122.125 88.6875 C123.92649548 90.06457145 125.72859324 91.44085532 127.53125 92.81640625 C128.90023437 93.86658936 128.90023437 93.86658936 130.296875 94.93798828 C134.37223572 98.04677591 138.49450629 101.09004481 142.625 104.125 C143.40633301 104.70016357 144.18766602 105.27532715 144.99267578 105.86791992 C151.04185632 110.31371075 157.12597369 114.71005282 163.21777344 119.09716797 C175.91815547 128.25358105 188.49392792 137.5803052 201 147 C202.91634943 148.43792288 204.83302543 149.87541063 206.75 151.3125 C216.75 158.8125 216.75 158.8125 218.72973633 160.29736328 C220.07845381 161.30886065 221.42724961 162.32025359 222.77612305 163.33154297 C226.29661285 165.97117592 229.81560111 168.61277322 233.33203125 171.2578125 C234.04069336 171.79043701 234.74935547 172.32306152 235.47949219 172.87182617 C236.82309627 173.88173393 238.16623066 174.89226701 239.50878906 175.90356445 C241.33462301 177.27532351 243.16538211 178.64001455 245 180 C245.63147949 180.46937988 246.26295898 180.93875977 246.91357422 181.42236328 C249.58859553 183.37834559 251.83590027 184.94530009 255 186 C255.2789517 198.94368582 255.49171513 211.88664828 255.62174606 224.83273602 C255.68418013 230.84538683 255.76875181 236.85597049 255.90527344 242.86743164 C256.0363783 248.67722959 256.10755672 254.48504932 256.13852692 260.29621315 C256.16057411 262.50469908 256.20363032 264.71308561 256.26876068 266.92072105 C256.80931421 286.01552122 256.80931421 286.01552122 250.8386879 293.00877094 C248.35837863 295.53300187 245.73936891 297.75634387 243 300 C241.51928817 301.497631 240.05324406 303.01027883 238.6171875 304.55078125 C237.37228521 305.80716317 236.12499021 307.06118001 234.875 308.3125 C234.23046875 308.96927734 233.5859375 309.62605469 232.921875 310.30273438 C232.30570313 310.92083984 231.68953125 311.53894531 231.0546875 312.17578125 C230.51312012 312.72145752 229.97155273 313.26713379 229.41357422 313.8293457 C228 315 228 315 226 315 C225.46780348 317.29826415 225.46780348 317.29826415 226 320 C228.08696932 321.78552245 230.06676628 323.22243651 232.34375 324.72265625 C242.18844388 331.95540474 252.85422655 340.03321963 255.83013916 352.46899414 C257.18814869 361.89376029 257.15481162 371.3179527 256.8125 380.8125 C256.78767548 381.5054781 256.76285095 382.19845619 256.73727417 382.91243362 C256.40179188 391.6370549 255.7333152 400.29293556 255 409 C244.44 409 233.88 409 223 409 C223.08314453 403.99392578 223.08314453 403.99392578 223.16796875 398.88671875 C223.18418926 395.6231278 223.18148333 392.36005616 223.17700195 389.09643555 C223.18394046 386.84335842 223.2102911 384.59024842 223.25708008 382.33764648 C224.11390562 367.98841053 224.11390562 367.98841053 218.19844055 355.58857727 C215.93479764 353.52081476 213.51168216 351.75357495 211 350 C209.49797497 348.60759227 208.01362061 347.19538142 206.5625 345.75 C204.86159815 344.02569904 204.86159815 344.02569904 203 343 C196.71200005 343.524 192.11959208 349.7648207 188.3125 354.25 C187.77238281 354.91515625 187.23226563 355.5803125 186.67578125 356.265625 C185 358 185 358 182.85546875 359.046875 C180.64112906 359.91100196 180.64112906 359.91100196 180 363 C179.88624128 364.48770605 179.82392798 365.97967324 179.79467773 367.47143555 C179.77473251 368.37214279 179.75478729 369.27285004 179.73423767 370.20085144 C179.70916893 371.65410576 179.70916893 371.65410576 179.68359375 373.13671875 C179.6524221 374.62858452 179.6524221 374.62858452 179.62062073 376.15058899 C179.55520588 379.32948867 179.4962776 382.50847134 179.4375 385.6875 C179.39430712 387.84180548 179.35069258 389.99610254 179.30664062 392.15039062 C179.19873877 397.43350991 179.09960509 402.71669167 179 408 C168.44 408 157.88 408 147 408 C146.1506897 398.96199901 145.42306292 390.000526 145.0625 380.9375 C145.03596344 380.27515602 145.00942688 379.61281204 144.98208618 378.93039703 C144.41239512 362.84936604 144.7421189 349.34379492 155.96046448 336.9773407 C162.66662937 330.22095425 170.12545954 324.32761034 178 319 C175.70622353 315.03161841 173.32204651 312.17576322 170 309 C168.87199631 307.86626185 167.74719229 306.72933441 166.625 305.58984375 C165.41670629 304.3723565 164.20837228 303.15490926 163 301.9375 C162.39671875 301.32583984 161.7934375 300.71417969 161.171875 300.08398438 C158.63024108 297.52853723 156.14552401 295.11485398 153.3125 292.87890625 C149.89938578 290.10575095 147.28080937 287.68864875 146.53967762 283.23184872 C146.55807036 282.21963536 146.57646311 281.20742201 146.59541321 280.16453552 C146.60606812 278.99702255 146.61672302 277.82950958 146.62770081 276.62661743 C146.65943893 275.35434296 146.69117706 274.08206848 146.72387695 272.77124023 C146.74298518 271.41070635 146.7600739 270.05014282 146.77529907 268.68955994 C146.81074476 265.76302568 146.85728522 262.83694911 146.9114933 259.91070366 C146.99409193 255.27382867 147.03208916 250.63725764 147.06034851 245.99977112 C147.07056044 244.40921284 147.08080796 242.81865479 147.0910902 241.22809696 C147.09877235 240.03333388 147.09877235 240.03333388 147.1066097 238.81443417 C147.17949471 228.02358075 147.28871584 217.23432744 147.48999023 206.44506836 C147.62554065 199.15989 147.69982641 191.876794 147.70585603 184.59032398 C147.71158966 180.73884943 147.74808621 176.89332615 147.86034584 173.04336357 C148.94980152 157.64323296 148.94980152 157.64323296 144.36416245 143.58479691 C140.48184169 139.70673167 136.12396951 137.29191291 131.1522274 135.06520271 C127.65192266 133.33279558 124.74879225 130.91265025 121.75 128.4375 C118.92879471 126.2119637 116.25215542 124.14571276 113.140625 122.34765625 C112.08101562 121.68056641 112.08101562 121.68056641 111 121 C111 120.34 111 119.68 111 119 C106.50470607 121.54270487 102.47535026 124.56698392 98.375 127.6875 C97.05016935 128.69231689 95.72463252 129.69620329 94.3984375 130.69921875 C93.71338135 131.23981934 93.0283252 131.78041992 92.32250977 132.33740234 C90 134 90 134 87.06616211 135.51025391 C81.51586978 138.59486232 81.51586978 138.59486232 78.39624023 143.9258728 C77.44750302 149.5882316 77.6587961 155.28221476 77.8125 161 C77.81946618 162.74608095 77.8214663 164.49218917 77.81835938 166.23828125 C77.82153185 170.49465662 77.89229153 174.74503872 78 179 C74.46035571 177.7202051 71.71861349 176.23092337 68.75 173.92578125 C67.9765625 173.34119141 67.203125 172.75660156 66.40625 172.15429688 C64.79641031 170.92209003 63.19225016 169.6824289 61.59375 168.43554688 C60.43359375 167.56446289 60.43359375 167.56446289 59.25 166.67578125 C58.20585938 165.8700769 58.20585938 165.8700769 57.140625 165.0480957 C55.0244202 163.79629379 55.0244202 163.79629379 52.5168457 164.13427734 C49.68687315 165.10770665 47.83504106 166.33194244 45.48046875 168.17578125 C44.20659302 169.16143066 44.20659302 169.16143066 42.90698242 170.16699219 C42.00955322 170.87500977 41.11212402 171.58302734 40.1875 172.3125 C38.2920702 173.78307235 36.39623324 175.25312005 34.5 176.72265625 C33.09814453 177.81537842 33.09814453 177.81537842 31.66796875 178.93017578 C28.03890831 181.74562 24.36912713 184.50386829 20.6875 187.25 C19.40361 188.21088962 18.1197556 189.17182681 16.8359375 190.1328125 C15.5573583 191.08863081 14.27871146 192.04435864 13 193 C4.42914032 199.40645945 -4.12453484 205.82933363 -12.58984375 212.375 C-15.0915735 214.30683765 -17.60717134 216.21935432 -20.12890625 218.125 C-46.55311821 238.12354676 -67.66920893 257.84898092 -76 291 C-76.1731542 291.65166327 -76.3463084 292.30332653 -76.5247097 292.97473717 C-78.45917514 301.23029521 -78.30820856 309.50112379 -78.31884766 317.92431641 C-78.32815978 319.62035595 -78.33833034 321.31639095 -78.34928894 323.01242065 C-78.37645831 327.59018532 -78.39169938 332.16791943 -78.40471697 336.74574327 C-78.42040499 341.53970858 -78.44717699 346.33361202 -78.4727478 351.12753296 C-78.51943553 360.19366418 -78.55622792 369.25980717 -78.58942068 378.32599676 C-78.62771296 388.6525518 -78.67710441 398.97904456 -78.72740483 409.305547 C-78.83057581 430.53699096 -78.91841932 451.76846134 -79 473 C-89.89 473 -100.78 473 -112 473 C-112.02260726 451.82430367 -112.04101428 430.64861718 -112.05181217 409.47291183 C-112.05695994 399.63981442 -112.06397361 389.80672506 -112.07543945 379.97363281 C-112.08543279 371.39924401 -112.09186447 362.82486105 -112.09408849 354.25046659 C-112.09538772 349.71393438 -112.09842344 345.17741886 -112.10573006 340.64089203 C-112.11256375 336.36296483 -112.11460213 332.08506105 -112.11310768 327.80712891 C-112.11338073 326.24476239 -112.11534196 324.68239502 -112.11920547 323.12003326 C-112.17133966 300.93207309 -112.17133966 300.93207309 -109.73046875 290.67578125 C-109.48103516 289.62712891 -109.23160156 288.57847656 -108.97460938 287.49804688 C-108.71486328 286.44681641 -108.45511719 285.39558594 -108.1875 284.3125 C-107.93935547 283.24966797 -107.69121094 282.18683594 -107.43554688 281.09179688 C-105.88301024 274.68807708 -103.83122449 268.93639029 -101 263 C-100.20158171 261.02354736 -99.40899145 259.04471952 -98.625 257.0625 C-96.24622856 251.3403943 -93.38705725 246.18119154 -90 241 C-89.49984375 240.22398437 -88.9996875 239.44796875 -88.484375 238.6484375 C-77.86500769 222.82248719 -64.79581337 210.88720269 -49.5625 199.64453125 C-44.83301108 196.15192108 -40.17224084 192.56857159 -35.5 189 C-29.84863177 184.68755758 -24.19432319 180.38059792 -18.5 176.125 C-14.12936999 172.85775485 -9.79502171 169.54668227 -5.4753418 166.21240234 C0.6245078 161.50819833 6.76220908 156.85387601 12.89453125 152.19213867 C19.685587 147.02128714 26.4326349 141.79635128 33.1394043 136.51660156 C33.82429932 135.9800293 34.50919434 135.44345703 35.21484375 134.890625 C35.80386475 134.42688477 36.39288574 133.96314453 36.99975586 133.48535156 C39 132 39 132 42.1862793 130.62304688 C45.51234546 127.52237401 45.4747424 126.70047494 45.77294922 122.31347656 C45.81395145 119.92285423 45.8224199 117.53153317 45.8046875 115.140625 C45.81839386 113.88111023 45.83210022 112.62159546 45.84622192 111.32391357 C45.87727351 107.98272194 45.88263678 104.64349606 45.87554932 101.30230713 C45.87463603 97.89017385 45.90749991 94.47838299 45.9375 91.06640625 C45.98945149 84.37748332 46.00754633 77.68910606 46 71 C45.21496597 70.69635025 44.42993195 70.3927005 43.62110901 70.07984924 C41.10803402 69.04450805 39.34356064 67.94245215 37.21484375 66.27734375 C36.18037109 65.47611084 36.18037109 65.47611084 35.125 64.65869141 C34.403125 64.09069824 33.68125 63.52270508 32.9375 62.9375 C31.41572978 61.75603988 29.89359252 60.57505237 28.37109375 59.39453125 C27.62714355 58.81525879 26.88319336 58.23598633 26.11669922 57.63916016 C22.33583579 54.71128045 18.49742552 51.86246551 14.65234375 49.01953125 C12.8781426 47.66862994 11.14018087 46.26882557 9.44140625 44.82421875 C8.26384766 43.82841797 8.26384766 43.82841797 7.0625 42.8125 C6.39347656 42.22082031 5.72445313 41.62914062 5.03515625 41.01953125 C2.99129095 39.72251183 2.99129095 39.72251183 0.53515625 40.58984375 C-2.16019156 42.08910501 -4.29361337 43.72997119 -6.625 45.75 C-12.55738619 50.73126992 -18.75001187 55.30264426 -25.01025391 59.86230469 C-25.78288574 60.42594727 -26.55551758 60.98958984 -27.3515625 61.5703125 C-28.03041504 62.06289551 -28.70926758 62.55547852 -29.40869141 63.06298828 C-30.26382324 63.70220215 -31.11895508 64.34141602 -32 65 C-32.74432785 65.43246536 -33.4886557 65.86493073 -34.25553894 66.3105011 C-37.98174476 68.70032879 -40.55142368 70.46424243 -41.82513428 74.82495117 C-42.13778315 78.29644547 -42.16840196 81.66748365 -42.09765625 85.15234375 C-42.11184853 87.03524864 -42.11184853 87.03524864 -42.12632751 88.95619202 C-42.14338365 92.27382433 -42.12198327 95.58658123 -42.08154297 98.90368652 C-42.04978102 102.29590376 -42.06911068 105.68780153 -42.08398438 109.08007812 C-42.10280689 115.72074941 -42.07088832 122.3597129 -42 129 C-41.39945801 129.12366943 -40.79891602 129.24733887 -40.18017578 129.37475586 C-36.88680726 130.31924822 -34.51044124 132.45717402 -31.875 134.5625 C-31.30531494 135.00924072 -30.73562988 135.45598145 -30.14868164 135.91625977 C-28.42644517 137.27011628 -26.7120865 138.63333886 -25 140 C-24.03191406 140.77085937 -23.06382812 141.54171875 -22.06640625 142.3359375 C-20.41481897 143.6562257 -18.76595982 144.97994139 -17.12109375 146.30859375 C-15.017036 148.03265136 -15.017036 148.03265136 -12.72265625 149.53515625 C-11.86994141 150.26025391 -11.86994141 150.26025391 -11 151 C-11 151.99 -11 152.98 -11 154 C-12.65234375 155.359375 -12.65234375 155.359375 -14.9375 156.75 C-18.34109218 158.90471505 -21.57785981 161.14060113 -24.75 163.625 C-25.86375 164.49511719 -25.86375 164.49511719 -27 165.3828125 C-28.62932661 166.70027581 -30.19958014 168.0905274 -31.75 169.5 C-34 171 -34 171 -36.359375 170.82421875 C-40.29439245 169.59598106 -42.70702043 167.03148676 -45.71875 164.30078125 C-47.93408151 162.70193859 -47.93408151 162.70193859 -50.4453125 163.5234375 C-53.36557718 165.2112969 -55.80762981 167.12398243 -58.375 169.3125 C-69.953125 179 -69.953125 179 -73 179 C-72.94650391 177.97229492 -72.89300781 176.94458984 -72.83789062 175.88574219 C-70.86345429 156.02714814 -70.86345429 156.02714814 -77.13671875 138.2890625 C-80.38176868 135.61095073 -83.97410595 133.78159371 -87.8046875 132.07568359 C-91.46309204 130.28309792 -94.5029299 127.70183872 -97.6875 125.1875 C-101.59510513 121.92737049 -101.59510513 121.92737049 -106.43652344 121.23168945 C-109.10103379 122.03028127 -110.77741243 122.9774992 -113.00390625 124.625 C-113.73923584 125.16278076 -114.47456543 125.70056152 -115.23217773 126.25463867 C-116.38568726 127.11859253 -116.38568726 127.11859253 -117.5625 128 C-118.35664307 128.58434814 -119.15078613 129.16869629 -119.96899414 129.77075195 C-122.31987588 131.50436971 -124.66139543 133.24986782 -127 135 C-127.64678711 135.48259277 -128.29357422 135.96518555 -128.95996094 136.46240234 C-131.55159124 138.39724962 -134.13750274 140.33911951 -136.71484375 142.29296875 C-138.4388132 143.58078867 -140.20953471 144.80635648 -142 146 C-142.46431589 148.55297637 -142.46431589 148.55297637 -142.39872742 151.59341431 C-142.41753464 153.37713188 -142.41753464 153.37713188 -142.4367218 155.19688416 C-142.43456917 157.16377953 -142.43456917 157.16377953 -142.43237305 159.17041016 C-142.44138542 160.55985897 -142.45171134 161.94929979 -142.46325684 163.33872986 C-142.49091503 167.11743732 -142.50012321 170.8959943 -142.50611091 174.67478991 C-142.51547177 178.62133825 -142.54167317 182.56777315 -142.56611633 186.51425171 C-142.60984827 193.99047339 -142.63835401 201.46667315 -142.66143972 208.94298398 C-142.68845562 217.45321155 -142.73236925 225.96332539 -142.77772844 234.47347188 C-142.87067053 251.98225611 -142.94230734 269.49106488 -143 287 C-143.66 287 -144.32 287 -145 287 C-145.20794189 287.53753906 -145.41588379 288.07507813 -145.63012695 288.62890625 C-147.53554442 291.9269662 -150.1858177 294.33189073 -152.91796875 296.9375 C-154.10132904 298.0907175 -155.28425908 299.24437661 -156.46679688 300.3984375 C-158.33180981 302.20750251 -160.20043447 304.01238794 -162.0769043 305.80957031 C-163.88916794 307.54953305 -165.68561163 309.30461208 -167.48046875 311.0625 C-168.04807419 311.5980249 -168.61567963 312.1335498 -169.20048523 312.68530273 C-172.07228203 315.4220793 -172.07228203 315.4220793 -173.24755859 319.07763672 C-171.710052 321.44678094 -169.78075905 322.81685344 -167.46563721 324.39363098 C-157.0447213 331.50658564 -145.29435977 340.61138091 -142.1730957 353.38372803 C-140.82520918 362.49318938 -140.84665087 371.63222955 -141.1875 380.8125 C-141.2122578 381.48149574 -141.23701561 382.15049149 -141.26252365 382.83975983 C-141.59771396 391.26237575 -142.26559806 399.59517774 -143 408 C-153.56 408 -164.12 408 -175 408 C-174.84015625 404.98359375 -174.6803125 401.9671875 -174.515625 398.859375 C-172.73196 374.03380945 -172.73196 374.03380945 -183.02832031 352.63378906 C-189.02797106 347.11234371 -189.02797106 347.11234371 -196 343 C-203.08279167 343.63799713 -209.51515123 349.93283876 -214.06640625 354.90625 C-223.90930487 368.95433066 -219.69454412 392.8158116 -219 409 C-229.56 409 -240.12 409 -251 409 C-251.18941769 401.4840931 -251.36955939 393.97694743 -251.46575165 386.46072388 C-251.51305608 382.96006991 -251.5761164 379.46141434 -251.67895508 375.96191406 C-251.79652555 371.93536405 -251.83930846 367.91088989 -251.87890625 363.8828125 C-251.92535782 362.64387238 -251.97180939 361.40493225 -252.01966858 360.12844849 C-252.02354158 353.4028043 -251.31712917 349.56721855 -246.77563477 344.45800781 C-245.21111521 342.94322774 -243.62169369 341.45340624 -242 340 C-241.03773524 339.03514948 -240.07890733 338.0668329 -239.12646484 337.09228516 C-237.93077881 335.95218994 -237.93077881 335.95218994 -236.7109375 334.7890625 C-235.83308594 333.93699219 -234.95523438 333.08492187 -234.05078125 332.20703125 C-232.23497324 330.45484279 -230.41178202 328.7102797 -228.58203125 326.97265625 C-227.71707031 326.12832031 -226.85210938 325.28398438 -225.9609375 324.4140625 C-225.17509277 323.6607666 -224.38924805 322.9074707 -223.57958984 322.13134766 C-221.7768672 320.16426883 -221.7768672 320.16426883 -222.08178711 317.92895508 C-223.08003664 315.83186135 -224.14138098 314.41494149 -225.73046875 312.72265625 C-226.28669922 312.12646484 -226.84292969 311.53027344 -227.41601562 310.91601562 C-228.00060547 310.30435547 -228.58519531 309.69269531 -229.1875 309.0625 C-230.03538086 308.15081055 -230.03538086 308.15081055 -230.90039062 307.22070312 C-233.5427128 304.41493834 -236.20326699 301.75770952 -239.19140625 299.3203125 C-241.66501847 297.27674413 -243.68859359 295.25687412 -245.75 292.8125 C-247.45766558 290.80099302 -249.13323413 288.86676587 -251 287 C-251.24609566 285.19216728 -251.24609566 285.19216728 -251.24050903 282.96310425 C-251.24325836 282.11893951 -251.24600769 281.27477478 -251.24884033 280.4050293 C-251.24164978 279.477146 -251.23445923 278.5492627 -251.22705078 277.59326172 C-251.22734283 276.61761261 -251.22763489 275.6419635 -251.22793579 274.63674927 C-251.22653868 271.40097259 -251.21095951 268.16542412 -251.1953125 264.9296875 C-251.19158373 262.69052252 -251.18873612 260.45135591 -251.18673706 258.21218872 C-251.17908992 252.3102368 -251.15943215 246.40838286 -251.1373291 240.50646973 C-251.11689392 234.48739955 -251.10774033 228.46831359 -251.09765625 222.44921875 C-251.07618729 210.63276938 -251.04203833 198.81639283 -251 187 C-250.34 187 -249.68 187 -249 187 C-249 186.34 -249 185.68 -249 185 C-247.01161758 183.43441692 -245.02204557 181.99054997 -242.9375 180.5625 C-241.63737955 179.65326003 -240.33792108 178.7430729 -239.0390625 177.83203125 C-238.36649414 177.3623291 -237.69392578 176.89262695 -237.00097656 176.40869141 C-233.90737888 174.2307926 -230.85859584 171.99364525 -227.8125 169.75 C-227.19995361 169.29939209 -226.58740723 168.84878418 -225.95629883 168.38452148 C-224.66120192 167.4315007 -223.36636896 166.47812114 -222.07177734 165.52441406 C-219.85868374 163.89601948 -217.64237965 162.27205758 -215.42578125 160.6484375 C-207.70450707 154.98527299 -200.02300229 149.28155936 -192.4375 143.4375 C-184.39776973 137.24634151 -176.1917953 131.30156745 -167.94335938 125.39257812 C-160.38147339 119.97385983 -152.90984232 114.44363458 -145.4753418 108.85229492 C-138.47780049 103.59531299 -131.43664009 98.39847322 -124.37890625 93.22265625 C-121.74645174 91.2914356 -119.12667425 89.34664669 -116.52734375 87.37109375 C-115.56957031 86.65050781 -114.61179687 85.92992187 -113.625 85.1875 C-112.83351563 84.58292969 -112.04203125 83.97835937 -111.2265625 83.35546875 C-108.53054052 81.71420625 -107.19084905 80.95867965 -104 81 C-101.0812345 82.4796299 -98.54302358 84.40623344 -95.9375 86.375 C-95.19105225 86.92067627 -94.44460449 87.46635254 -93.67553711 88.02856445 C-91.4382056 89.67004183 -89.21736458 91.33168272 -87 93 C-85.76317884 93.92338876 -84.52621266 94.84658333 -83.2890625 95.76953125 C-81.25821581 97.28753787 -79.23812183 98.8168396 -77.22265625 100.35546875 C-75.11257798 102.01558085 -75.11257798 102.01558085 -73 103 C-73.02997826 102.14341797 -73.02997826 102.14341797 -73.06056213 101.26953125 C-73.26042448 95.2998347 -73.39571046 89.3310945 -73.49438477 83.35888672 C-73.53951243 81.1335589 -73.60083363 78.90849599 -73.67895508 76.68408203 C-74.30997722 58.24833717 -74.30997722 58.24833717 -71.18066406 52.87744141 C-68.88652873 50.81001266 -66.73816959 49.4091494 -64 48 C-62.89583453 47.19197618 -61.80285955 46.36822655 -60.7265625 45.5234375 C-59.70304688 44.81445312 -58.67953125 44.10546875 -57.625 43.375 C-56.42087552 42.53137269 -55.21781184 41.68622995 -54.015625 40.83984375 C-53.0555957 40.16477783 -53.0555957 40.16477783 -52.07617188 39.47607422 C-48.14060932 36.67804844 -44.25961745 33.80562146 -40.375 30.9375 C-39.55684814 30.33357422 -38.73869629 29.72964844 -37.89575195 29.10742188 C-30.16658581 23.39445837 -22.46924978 17.64038028 -14.8203125 11.8203125 C-13.35937737 10.71353854 -11.89843988 9.60676769 -10.4375 8.5 C-9.74567627 7.97067871 -9.05385254 7.44135742 -8.34106445 6.89599609 C-7.56219714 3.40818034 -6.24018892 2.38071429 -4.94335938 1.32373047 C-3 0 -3 0 0 0 Z " fill="#0D5541" transform="translate(1026,575)"/>
</svg>